<svg xmlns="http://www.w3.org/2000/svg" xmlns:xlink="http://www.w3.org/1999/xlink" width="204.469" height="53.264" viewBox="0 0 204.469 53.264">
  <defs>
    <clipPath id="clip-path">
      <rect id="Rectangle_144" data-name="Rectangle 144" width="204.469" height="53.264" fill="none"/>
    </clipPath>
  </defs>
  <g id="logo" transform="translate(-9424.491 -2359.62)">
    <g id="Group_27" data-name="Group 27" transform="translate(9424.491 2359.62)">
      <g id="Group_26" data-name="Group 26" clip-path="url(#clip-path)">
        <path id="Path_131" data-name="Path 131" d="M.031,265.82c0,.005,155,0,155-.013.007.043-5.945,11.367-5.92,11.377.052.021-149.142.074-149.075.059-.067.015-.014-11.446,0-11.423" transform="translate(0 -223.982)" fill="#1c431e"/>
        <path id="Path_132" data-name="Path 132" d="M1025.621,265.807s0,11.284,0,11.284c-.038,0-51.125.008-51.132,0-.006.009,5.55-11.257,5.545-11.26s44.4-.024,45.585-.024" transform="translate(-821.154 -223.982)" fill="#75985b"/>
        <path id="Path_133" data-name="Path 133" d="M109.591,53.9v10.37h-5.011V54.251c-.039-1.272-.887-4.857-4.549-4.857-3.932,0-4.472,3.624-4.472,4.934v9.946h-5.05V54.251c0-1.272-.887-4.857-4.51-4.857-3.971,0-4.51,3.624-4.51,4.934v9.946h-5.4V44.344h5.4v2.082a6.08,6.08,0,0,1,4.857-2.043A8.83,8.83,0,0,1,93.4,47.736l1.619-1.5a8.1,8.1,0,0,1,5.358-1.85c5.127-.039,9.214,3.2,9.214,9.522" transform="translate(-64.118 -37.366)" fill="#fff"/>
        <path id="Path_134" data-name="Path 134" d="M318.889,56.591l-14.495-.039a3.849,3.849,0,0,0,1.118,1.7,5,5,0,0,0,3.47,1.427,5.071,5.071,0,0,0,3.469-1.465l.154-.154,5.012,1.581c-2.082,3.2-4.279,5.011-8.6,5.05a9.927,9.927,0,1,1,9.869-9.984c0,.27.038,1.619,0,1.889M305.473,51.31a5.078,5.078,0,0,0-1.041,1.619h9.059a5.126,5.126,0,0,0-1.079-1.658,5,5,0,0,0-3.47-1.388,4.868,4.868,0,0,0-3.47,1.426" transform="translate(-251.982 -37.779)" fill="#fff"/>
        <path id="Path_135" data-name="Path 135" d="M453.042,54.367v9.907H448.03V54.483h-.039v-.077a4.87,4.87,0,0,0-4.9-4.9,5.071,5.071,0,0,0-3.469,1.465,4.679,4.679,0,0,0-1.388,3.47v.039H438.2v9.792h-5.4V44.344h5.4v2.583a6.206,6.206,0,0,1,4.857-2.429c5.436-.463,9.985,3.046,9.985,9.869" transform="translate(-364.701 -37.366)" fill="#fff"/>
        <path id="Path_136" data-name="Path 136" d="M585.288,26.908V24.634a9.943,9.943,0,1,1-.039-15.3V0h5.4l.039,26.908Zm-1.426-9.946a5.071,5.071,0,0,0-1.465-3.47,5,5,0,0,0-3.469-1.388,4.9,4.9,0,0,0,.039,9.792,5.072,5.072,0,0,0,3.47-1.465,4.868,4.868,0,0,0,1.426-3.469" transform="translate(-479.484)" fill="#fff"/>
        <path id="Path_137" data-name="Path 137" d="M736.607,56.591l-14.495-.039a3.849,3.849,0,0,0,1.118,1.7,5,5,0,0,0,3.469,1.427,5.072,5.072,0,0,0,3.47-1.465l.154-.154,5.011,1.581c-2.082,3.2-4.279,5.011-8.6,5.05a9.927,9.927,0,1,1,9.869-9.984c0,.27.039,1.619,0,1.889M723.192,51.31a5.075,5.075,0,0,0-1.041,1.619h9.059a5.127,5.127,0,0,0-1.079-1.658,5,5,0,0,0-3.47-1.388,4.868,4.868,0,0,0-3.469,1.426" transform="translate(-603.972 -37.779)" fill="#fff"/>
        <path id="Path_138" data-name="Path 138" d="M865.076,42.629v5.513c-4.163,0-6.708,3.354-6.708,5.9v8.789h-5.4V42.976h5.4v2.968c.887-2.467,2.7-3.315,6.708-3.315" transform="translate(-718.756 -35.921)" fill="#fff"/>
      </g>
    </g>
  </g>
</svg>
